<svg width="65" height="65" viewBox="0 0 65 65" fill="none" xmlns="http://www.w3.org/2000/svg">
<circle cx="32.4092" cy="32.9047" r="32" fill="#E30000"/>
<path d="M32.4092 36.8273C34.5719 36.8273 36.3316 35.0682 36.3316 32.9049C36.3316 30.7422 34.5725 28.9831 32.4092 28.9831C30.2465 28.9831 28.4874 30.7422 28.4874 32.9049C28.4868 35.0682 30.2465 36.8273 32.4092 36.8273Z" fill="white"/>
<path d="M37.0743 39.3717C36.8287 38.9513 36.2893 38.8075 35.867 39.048C33.7801 40.2367 31.0413 40.2373 28.9505 39.048C28.5246 38.8062 27.9889 38.9532 27.7433 39.3717L20.146 52.3746C20.027 52.5779 19.9941 52.8228 20.0536 53.051C20.1132 53.2792 20.2626 53.4751 20.4672 53.5923C24.0796 55.685 28.2085 56.7917 32.4085 56.7917C36.6086 56.7917 40.7375 55.6862 44.348 53.5923C44.5526 53.4739 44.7008 53.2786 44.7622 53.051C44.8236 52.8235 44.7889 52.5792 44.6698 52.3746L37.0743 39.3717Z" fill="white"/>
<path d="M44.5759 12.3479C44.3725 12.227 44.1276 12.1941 43.8994 12.2518C43.6694 12.3113 43.4735 12.4595 43.3544 12.6641L35.7571 25.6627C35.5128 26.0812 35.6486 26.6194 36.0628 26.8705C38.1914 28.1639 39.4612 30.4196 39.4612 32.9072C39.4612 33.3976 39.8587 33.7963 40.3504 33.7963H55.4062C55.8979 33.7963 56.2954 33.3983 56.2954 32.9072C56.2941 24.515 51.8038 16.6374 44.576 12.3485L44.5759 12.3479Z" fill="white"/>
<path d="M25.3552 32.9066C25.3552 30.4203 26.6257 28.1646 28.7537 26.8699C29.1678 26.6182 29.3036 26.0806 29.0593 25.6621L21.462 12.6635C21.343 12.4589 21.1464 12.3107 20.917 12.2512C20.6876 12.1923 20.4439 12.2264 20.2406 12.3473C13.0128 16.6373 8.52246 24.5143 8.52246 32.906C8.52246 33.3965 8.92052 33.7952 9.4116 33.7952H24.4668C24.9585 33.7958 25.3554 33.3977 25.3554 32.9073L25.3552 32.9066Z" fill="white"/>
</svg>
