<svg width="65" height="59" viewBox="0 0 65 59" fill="none" xmlns="http://www.w3.org/2000/svg">
<path d="M63.2007 43.571L41.2942 5.66145C37.3822 -1.09528 27.7094 -1.09528 23.7975 5.66145L1.89108 43.571C-1.94992 50.3277 2.8868 58.7917 10.6393 58.7917H54.3811C62.205 58.7917 67.0418 50.3277 63.2007 43.571ZM32.5459 14.4809C35.3906 14.4809 36.7421 17.1838 36.7421 21.6644C36.7421 26.1454 34.395 34.8225 34.395 34.8225C34.324 35.1782 33.8259 36.3164 32.4745 36.3164C31.1231 36.3164 30.6254 35.1783 30.554 34.8225C30.554 34.8225 28.2069 26.1453 28.2069 21.6644C28.2074 17.1839 29.7013 14.4809 32.546 14.4809H32.5459ZM32.4749 49.7588C30.0568 49.7588 27.9939 47.6965 27.9939 45.2778C27.9939 42.7882 30.0563 40.7259 32.4749 40.7259C34.9646 40.7259 37.0269 42.7882 37.0269 45.2778C37.0269 47.696 34.964 49.7588 32.4749 49.7588Z" fill="#FFB50F"/>
</svg>
